<?xml version="1.0" encoding="UTF-8" standalone="no"?>
<svg version="1.1" width="1000" height="310" xmlns="http://www.w3.org/2000/svg" xmlns:xlink="http://www.w3.org/1999/xlink">

<!--Blue figure-->
<path style="fill:#0ad" d="m 175,26 c 27,0 115,71 115,143 a 115,113,0,0,1,-230,0 c 0,-72 88,-143 115,-143 z"/>

<!--Orange figure-->
<path style="fill:#e50" 
	d="m 802,67 c 34.5,0 50,-19 95,-19 c 27.5,0 45,20 45,51 c 0,63 -64.5,175 -140,175 
	c -75.5,0 -140,-112 -140,-175 c -0,-31 17.5,-51 45,-51 c 45,0 60.5,19 95,19 z" />

<!--Yellow figure-->
<path style="fill:#fc0" 
	d="m 595,15 c 22.5,0 48,35.5 70,50 c 51,31.5 70,78 70,115 a 140,100,0,0,1,-280,0 
	c 0,-37 19,-83.5 70,-115 c 22,-14.5 47.5,-50 70,-50 z" />

<!--Green figure-->
<path style="fill:#7b2" 
	d="m 382,3 c 6,0 2.4,32.8 26.8,38.4 c 24.4,5.2 37.4,-25.4 42.8,-22.8 c 5.4,2.6 -12.8,30.4 6.4,45.2 
	c 19.6,14.8 45.5,-7.9 49.2,-3.2 c 3.7,4.7 -25.6,22.4 -15.2,43.6 c 10.8,21.2 44.3,11.4 45.6,17.2 c 1.3,5.8 -33.6,9.6 -33.6,33.2 
	c 0,23.6 34.9,27.4 33.6,33.2 c -1.3,5.8 -34.8,-4 -45.6,17.2 c -10.4,21.2 18.9,38.9 15.2,43.6 
	c -3.7,4.7 -29.6,-18.0 -49.2,-3.2 c -19.2,14.8 -1.0,42.6 -6.4,45.2 c -5.4,2.6 -18.4,-28.0 -42.8,-22.8 c -24.4,5.6 -20.8,38.4 -26.8,38.4 
	c -6.0,0 -2.4,-32.8 -26.8,-38.4 c -24.4,-5.2 -37.4,25.4 -42.8,22.8 c -5.4,-2.6 12.8,-30.4 -6.4,-45.2 
	c -19.6,-14.8 -45.5,7.9 -49.2,3.2 c -3.7,-4.7 25.6,-22.4 15.2,-43.6 c -10.8,-21.2 -44.3,-11.4 -45.6,-17.2 c -1.3,-5.8 33.6,-9.6 33.6,-33.2 
	c 0,-23.6 -34.9,-27.4 -33.6,-33.2 c 1.3,-5.8 34.8,4.0 45.6,-17.2 c 10.4,-21.2 -18.9,-38.9 -15.2,-43.6 
	c 3.7,-4.7 29.6,18.0 49.2,3.2 c 19.2,-14.8 1.0,-42.6 6.4,-45.2 c 5.4,-2.6 18.4,28.0 42.8,22.8 c 24.4,-5.6 20.8,-38.4 26.8,-38.4 z" />


<g style="fill:none;stroke:white;stroke-width:24px;stroke-linecap:round">

<!--K-->
<path d="M 142,208 v-96 	M 206,113 l-48,44 	M 208,209 l-48,-46"/>

<!--Y-->
<path d="M 418,209 v-96 	M 346,209 v-96 		M 346,209 l72,-96"/>

<!--Yi-->
<path d="M 594,209 v-96"/>
<circle style="fill:white;stroke:none" cx="576" cy="75" r="12"/>
<circle style="fill:white;stroke:none" cx="612" cy="75" r="12"/>

<!--V-->
<path d="M 778,209 v-96 
	M 778,113 h36 a20,23,0,0,1,0,46 h-36 
	M 778,209 h32 a28,25,0,0,0,0,-50 h-32"/>

</g>

</svg>